<svg width="23" height="24" viewBox="0 0 23 24" fill="none" xmlns="http://www.w3.org/2000/svg">
<g clip-path="url(#clip0_342_13682)">
<path d="M22.9879 12.2245C22.9879 11.2413 22.9097 10.5238 22.7403 9.77966H11.7291V14.2176H18.1924C18.0622 15.3205 17.3585 16.9815 15.7948 18.0976L15.7728 18.2462L19.2544 20.9964L19.4956 21.0209C21.7108 18.9347 22.9879 15.8653 22.9879 12.2245Z" fill="#4285F4"/>
<path d="M11.729 23.9176C14.8955 23.9176 17.5538 22.8545 19.4955 21.0209L15.7947 18.0976C14.8043 18.8018 13.4751 19.2934 11.729 19.2934C8.62767 19.2934 5.99543 17.2074 5.0571 14.324L4.91957 14.3359L1.29942 17.1927L1.25208 17.3269C3.18064 21.2334 7.14207 23.9176 11.729 23.9176Z" fill="#34A853"/>
<path d="M5.05719 14.3239C4.80961 13.5798 4.66633 12.7825 4.66633 11.9587C4.66633 11.1349 4.80961 10.3376 5.04417 9.59354L5.03761 9.43507L1.37209 6.53235L1.25217 6.59052C0.45731 8.21162 0.0012207 10.032 0.0012207 11.9587C0.0012207 13.8854 0.45731 15.7058 1.25217 17.3269L5.05719 14.3239Z" fill="#FBBC05"/>
<path d="M11.729 4.62403C13.9312 4.62403 15.4167 5.59402 16.2638 6.40461L19.5736 3.10928C17.5409 1.1826 14.8955 0 11.729 0C7.14207 0 3.18064 2.68406 1.25208 6.59057L5.04408 9.59359C5.99543 6.7102 8.62766 4.62403 11.729 4.62403Z" fill="#EB4335"/>
</g>
<defs>
<clipPath id="clip0_342_13682">
<rect width="23" height="24" fill="white"/>
</clipPath>
</defs>
</svg>
