<svg width="30" height="35" viewBox="0 0 30 35" fill="none" xmlns="http://www.w3.org/2000/svg">
<g id="Group 21">
<g id="car_x2C__vehicle_x2C__transport_1_">
<g id="XMLID_1814_">
<path id="XMLID_1824_" d="M25.8138 16.7178H28.5173C28.7837 16.7178 29 16.9331 29 17.2005V18.166C29 18.4325 28.7953 18.7164 28.5414 18.8014" stroke="#1E1E1E" stroke-miterlimit="10" stroke-linecap="round" stroke-linejoin="round"/>
<path id="XMLID_1823_" d="M5.82758 30.7178V33.1316C5.82758 33.6645 5.396 34.0971 4.86207 34.0971H2.93103C2.3971 34.0971 1.96552 33.6645 1.96552 33.1316V30.7178" stroke="#1E1E1E" stroke-miterlimit="10" stroke-linecap="round" stroke-linejoin="round"/>
<path id="XMLID_1822_" d="M28.0345 30.2349V33.1314C28.0345 33.6644 27.6029 34.0969 27.069 34.0969H25.1379C24.604 34.0969 24.1724 33.6644 24.1724 33.1314V30.2349" stroke="#1E1E1E" stroke-miterlimit="10" stroke-linecap="round" stroke-linejoin="round"/>
<path id="XMLID_1821_" d="M4.18621 16.7178H1.48276C1.21628 16.7178 1 16.9331 1 17.2005V18.166C1 18.4325 1.20469 18.7164 1.45862 18.8014" stroke="#1E1E1E" stroke-miterlimit="10" stroke-linecap="round" stroke-linejoin="round"/>
<path id="XMLID_1820_" d="M28.0345 30.2347H1.96552C1.43159 30.2347 1 29.8022 1 29.2692V28.3037H29V29.2692C29 29.8022 28.5684 30.2347 28.0345 30.2347Z" stroke="#1E1E1E" stroke-miterlimit="10" stroke-linecap="round" stroke-linejoin="round"/>
<path id="XMLID_1819_" d="M1 26.3729V22.9936C1 20.1569 4.45945 19.6143 15 19.6143C25.5406 19.6143 29 20.1578 29 22.9936V26.0716" stroke="#1E1E1E" stroke-miterlimit="10" stroke-linecap="round" stroke-linejoin="round"/>
<path id="XMLID_1818_" d="M29 23.4761V26.3726H23.2069V24.4416C23.2069 23.9077 23.6385 23.4761 24.1724 23.4761H27.069" stroke="#1E1E1E" stroke-miterlimit="10" stroke-linecap="round" stroke-linejoin="round"/>
<path id="XMLID_1817_" d="M2.93103 23.4761H5.82759C6.36152 23.4761 6.7931 23.9077 6.7931 24.4416V26.3726H1V23.4761" stroke="#1E1E1E" stroke-miterlimit="10" stroke-linecap="round" stroke-linejoin="round"/>
<path id="XMLID_1816_" d="M8.72415 26.3726V25.4071C8.72415 24.345 9.59312 23.4761 10.6552 23.4761H19.3448C20.4069 23.4761 21.2759 24.345 21.2759 25.4071V26.3726" stroke="#1E1E1E" stroke-miterlimit="10" stroke-linecap="round" stroke-linejoin="round"/>
<path id="XMLID_1815_" d="M3.51132 20.095L4.96636 12.8189C5.17587 11.7732 6.14525 10.5866 7.19863 10.4176C8.63532 10.184 10.6648 9.95996 15 9.95996C19.3352 9.95996 21.3647 10.184 22.8024 10.4176C23.8557 10.5875 24.8251 11.7732 25.0346 12.8189L26.4916 20.1056" stroke="#1E1E1E" stroke-miterlimit="10" stroke-linecap="round" stroke-linejoin="round"/>
</g>
</g>
<g id="Group 20">
<path id="Vector" d="M22.8982 5.52616H22.9572L23.01 5.49976L24.2318 4.88885L24.37 4.81976V4.66525V3.44221V3.28756L24.2316 3.21851L23.0098 2.60882L22.9571 2.58252H22.8982H21.6764H21.5728L21.4996 2.65574L20.7045 3.45078V2.83252V2.58252H20.4545H19.2327H19.1292L19.0559 2.65574L18.2609 3.45078V2.83252V2.58252H18.0109H14.9564H14.7064V2.83252V5.27616V5.52616H14.9564H22.8982Z" stroke="#1E1E1E" stroke-width="0.5"/>
<path id="Vector_2" d="M9.05455 0.75C7.22914 0.75 5.75 2.22914 5.75 4.05455C5.75 5.87995 7.22914 7.35909 9.05455 7.35909C10.8799 7.35909 12.3591 5.87995 12.3591 4.05455C12.3591 2.22914 10.8799 0.75 9.05455 0.75ZM7.83273 4.41545C7.73701 4.41545 7.64521 4.37743 7.57753 4.30975C7.50984 4.24206 7.47182 4.15026 7.47182 4.05455C7.47182 3.95883 7.50984 3.86703 7.57753 3.79934C7.64521 3.73166 7.73701 3.69364 7.83273 3.69364C7.92845 3.69364 8.02024 3.73166 8.08793 3.79934C8.15561 3.86703 8.19364 3.95883 8.19364 4.05455C8.19364 4.15026 8.15561 4.24206 8.08793 4.30975C8.02024 4.37743 7.92845 4.41545 7.83273 4.41545Z" stroke="#1E1E1E" stroke-width="0.5"/>
<path id="Vector_3" d="M14.3309 5.52616H14.5809V5.27616V2.83252V2.58252H14.3309H12.8513H12.4679L12.6225 2.93335C12.7782 3.28656 12.8586 3.66834 12.8586 4.05434C12.8586 4.44034 12.7782 4.82211 12.6225 5.17533L12.4679 5.52616H12.8513H14.3309Z" stroke="#1E1E1E" stroke-width="0.5"/>
</g>
</g>
</svg>
