<svg width="30" height="35" viewBox="0 0 30 35" fill="none" xmlns="http://www.w3.org/2000/svg">
<g id="Group 21">
<g id="car_x2C__vehicle_x2C__transport_1_">
<g id="XMLID_1814_">
<path id="XMLID_1824_" d="M25.8137 16.7177H28.5172C28.7837 16.7177 28.9999 16.933 28.9999 17.2004V18.1659C28.9999 18.4324 28.7952 18.7163 28.5413 18.8012" stroke="white" stroke-miterlimit="10" stroke-linecap="round" stroke-linejoin="round"/>
<path id="XMLID_1823_" d="M5.82765 30.7177V33.1314C5.82765 33.6644 5.39606 34.097 4.86213 34.097H2.93109C2.39716 34.097 1.96558 33.6644 1.96558 33.1314V30.7177" stroke="white" stroke-miterlimit="10" stroke-linecap="round" stroke-linejoin="round"/>
<path id="XMLID_1822_" d="M28.0344 30.2349V33.1314C28.0344 33.6644 27.6028 34.0969 27.0689 34.0969H25.1379C24.6039 34.0969 24.1724 33.6644 24.1724 33.1314V30.2349" stroke="white" stroke-miterlimit="10" stroke-linecap="round" stroke-linejoin="round"/>
<path id="XMLID_1821_" d="M4.18621 16.7177H1.48276C1.21628 16.7177 1 16.933 1 17.2004V18.1659C1 18.4324 1.20469 18.7163 1.45862 18.8012" stroke="white" stroke-miterlimit="10" stroke-linecap="round" stroke-linejoin="round"/>
<path id="XMLID_1820_" d="M28.0345 30.2349H1.96552C1.43159 30.2349 1 29.8023 1 29.2694V28.3038H29V29.2694C29 29.8023 28.5684 30.2349 28.0345 30.2349Z" stroke="white" stroke-miterlimit="10" stroke-linecap="round" stroke-linejoin="round"/>
<path id="XMLID_1819_" d="M1 26.3728V22.9934C1 20.1568 4.45945 19.6141 15 19.6141C25.5406 19.6141 29 20.1577 29 22.9934V26.0715" stroke="white" stroke-miterlimit="10" stroke-linecap="round" stroke-linejoin="round"/>
<path id="XMLID_1818_" d="M28.9999 23.4762V26.3727H23.2068V24.4417C23.2068 23.9078 23.6384 23.4762 24.1723 23.4762H27.0689" stroke="white" stroke-miterlimit="10" stroke-linecap="round" stroke-linejoin="round"/>
<path id="XMLID_1817_" d="M2.93103 23.4762H5.82759C6.36152 23.4762 6.7931 23.9078 6.7931 24.4417V26.3727H1V23.4762" stroke="white" stroke-miterlimit="10" stroke-linecap="round" stroke-linejoin="round"/>
<path id="XMLID_1816_" d="M8.72412 26.3727V25.4072C8.72412 24.3452 9.59309 23.4762 10.6552 23.4762H19.3448C20.4069 23.4762 21.2758 24.3452 21.2758 25.4072V26.3727" stroke="white" stroke-miterlimit="10" stroke-linecap="round" stroke-linejoin="round"/>
<path id="XMLID_1815_" d="M3.51123 20.095L4.96627 12.8189C5.17578 11.7732 6.14516 10.5866 7.19854 10.4176C8.63523 10.184 10.6647 9.95996 14.9999 9.95996C19.3351 9.95996 21.3646 10.184 22.8023 10.4176C23.8556 10.5875 24.825 11.7732 25.0345 12.8189L26.4915 20.1056" stroke="white" stroke-miterlimit="10" stroke-linecap="round" stroke-linejoin="round"/>
</g>
</g>
<g id="Group 20">
<path id="Vector" d="M22.8981 5.5264H22.9571L23.0099 5.50001L24.2317 4.8891L24.3699 4.82V4.66549V3.44245V3.2878L24.2316 3.21875L23.0097 2.60907L22.957 2.58276H22.8981H21.6763H21.5727L21.4995 2.65599L20.7045 3.45103V2.83276V2.58276H20.4545H19.2327H19.1291L19.0559 2.65599L18.2608 3.45103V2.83276V2.58276H18.0108H14.9563H14.7063V2.83276V5.2764V5.5264H14.9563H22.8981Z" stroke="white" stroke-width="0.5"/>
<path id="Vector_2" d="M9.05455 0.75C7.22914 0.75 5.75 2.22914 5.75 4.05455C5.75 5.87995 7.22914 7.35909 9.05455 7.35909C10.8799 7.35909 12.3591 5.87995 12.3591 4.05455C12.3591 2.22914 10.8799 0.75 9.05455 0.75ZM7.83273 4.41545C7.73701 4.41545 7.64521 4.37743 7.57753 4.30975C7.50984 4.24206 7.47182 4.15026 7.47182 4.05455C7.47182 3.95883 7.50984 3.86703 7.57753 3.79934C7.64521 3.73166 7.73701 3.69364 7.83273 3.69364C7.92845 3.69364 8.02024 3.73166 8.08793 3.79934C8.15561 3.86703 8.19364 3.95883 8.19364 4.05455C8.19364 4.15026 8.15561 4.24206 8.08793 4.30975C8.02024 4.37743 7.92845 4.41545 7.83273 4.41545Z" stroke="white" stroke-width="0.5"/>
<path id="Vector_3" d="M14.3309 5.5264H14.5809V5.2764V2.83276V2.58276H14.3309H12.8513H12.4679L12.6226 2.93359C12.7782 3.28681 12.8586 3.66858 12.8586 4.05458C12.8586 4.44059 12.7782 4.82236 12.6226 5.17557L12.4679 5.5264H12.8513H14.3309Z" stroke="white" stroke-width="0.5"/>
</g>
</g>
</svg>
