<svg width="24" height="24" viewBox="0 0 24 24" fill="none" xmlns="http://www.w3.org/2000/svg">
<path d="M12.9988 3.50702C12.9239 3.50656 12.8505 3.52858 12.7882 3.57023C12.7259 3.61187 12.6775 3.67123 12.6492 3.74065C12.621 3.81007 12.6142 3.88637 12.6297 3.95969C12.6452 4.03302 12.6824 4.10001 12.7363 4.15202L13.1278 4.54202V5.57252C13.0003 5.61864 12.8821 5.68751 12.7791 5.77577L11.8813 5.25752L11.7403 4.72877C11.7202 4.64948 11.6748 4.57894 11.6109 4.52789C11.547 4.47684 11.4681 4.44809 11.3863 4.44602C11.3276 4.44442 11.2693 4.45664 11.2162 4.48171C11.163 4.50678 11.1165 4.54398 11.0804 4.59033C11.0442 4.63667 11.0195 4.69086 11.0082 4.74852C10.9968 4.80618 10.9992 4.86569 11.0151 4.92227L11.1021 5.24252L10.7826 5.32802C10.7327 5.33854 10.6854 5.35912 10.6438 5.38852C10.6021 5.41792 10.5668 5.45552 10.5402 5.49901C10.5135 5.54249 10.496 5.59096 10.4888 5.64144C10.4815 5.69193 10.4846 5.74336 10.4979 5.79261C10.5111 5.84186 10.5343 5.88787 10.566 5.92785C10.5977 5.96783 10.6372 6.00092 10.6821 6.02511C10.727 6.0493 10.7764 6.06407 10.8272 6.06852C10.878 6.07298 10.9292 6.06702 10.9776 6.05102L11.5101 5.90852L12.3996 6.42152C12.3868 6.48902 12.3771 6.55802 12.3771 6.62852C12.3771 6.69827 12.3868 6.76652 12.3996 6.83327L11.5093 7.34927L10.9768 7.20677C10.9408 7.19599 10.9034 7.19068 10.8658 7.19102V7.19252C10.7755 7.195 10.689 7.23005 10.6225 7.2912C10.5559 7.35236 10.5136 7.43551 10.5035 7.52534C10.4934 7.61517 10.516 7.70564 10.5673 7.78009C10.6186 7.85454 10.695 7.90796 10.7826 7.93052L11.1021 8.01602L11.0151 8.33477C10.9892 8.43094 11.0026 8.53345 11.0524 8.61974C11.1021 8.70603 11.184 8.76903 11.2802 8.79489C11.3764 8.82075 11.4789 8.80735 11.5652 8.75763C11.6515 8.7079 11.7145 8.62594 11.7403 8.52977L11.8828 7.99952L12.7791 7.48127C12.8818 7.56827 12.9988 7.63877 13.1278 7.68452V8.71577L12.7363 9.10727C12.7015 9.14223 12.6739 9.18371 12.6551 9.22934C12.6364 9.27496 12.6267 9.32385 12.6268 9.37319C12.6271 9.47284 12.6668 9.56833 12.7375 9.63864C12.8081 9.70896 12.9037 9.74834 13.0034 9.74813C13.103 9.74792 13.1985 9.70813 13.2688 9.63752L13.4998 9.40502L13.7323 9.63752C13.7672 9.67238 13.8085 9.70005 13.854 9.71894C13.8995 9.73783 13.9483 9.74757 13.9976 9.7476C14.0468 9.74764 14.0956 9.73797 14.1412 9.71914C14.1867 9.70032 14.2281 9.67271 14.263 9.63789C14.2978 9.60308 14.3255 9.56173 14.3444 9.51622C14.3633 9.47071 14.373 9.42193 14.373 9.37266C14.3731 9.32338 14.3634 9.27459 14.3446 9.22905C14.3258 9.18352 14.2982 9.14213 14.2633 9.10727L13.8778 8.72177V7.68452C14.0068 7.63802 14.1238 7.56752 14.2266 7.47977L15.1168 7.99352L15.2608 8.52977C15.2723 8.57878 15.2934 8.625 15.3231 8.66566C15.3527 8.70632 15.3903 8.7406 15.4335 8.76644C15.4766 8.79229 15.5246 8.80918 15.5744 8.81611C15.6243 8.82304 15.675 8.81986 15.7236 8.80677C15.7722 8.79367 15.8177 8.77093 15.8573 8.7399C15.8969 8.70887 15.9299 8.67018 15.9542 8.62613C15.9786 8.58209 15.9938 8.53359 15.999 8.48354C16.0043 8.43348 15.9993 8.38288 15.9846 8.33477L15.8991 8.01602L16.2171 7.93052C16.3054 7.90763 16.3823 7.85334 16.4335 7.77783C16.4846 7.70231 16.5065 7.61074 16.495 7.52026C16.4835 7.42978 16.4394 7.34658 16.371 7.28626C16.3026 7.22593 16.2145 7.1926 16.1233 7.19252C16.0891 7.19287 16.055 7.19791 16.0221 7.20752L15.4971 7.34777L14.6061 6.83327C14.6181 6.76652 14.6278 6.69827 14.6278 6.62852C14.6278 6.55802 14.6181 6.48977 14.6053 6.42302L15.4948 5.91077L16.0221 6.05102C16.0705 6.06702 16.1217 6.07298 16.1725 6.06852C16.2233 6.06407 16.2727 6.0493 16.3176 6.02511C16.3625 6.00092 16.402 5.96783 16.4337 5.92785C16.4653 5.88787 16.4885 5.84186 16.5018 5.79261C16.5151 5.74336 16.5182 5.69193 16.5109 5.64144C16.5036 5.59096 16.4861 5.54249 16.4595 5.49901C16.4328 5.45552 16.3976 5.41792 16.3559 5.38852C16.3142 5.35912 16.267 5.33854 16.2171 5.32802L15.8991 5.24102L15.9838 4.92152C15.9999 4.86424 16.002 4.80397 15.9901 4.74568C15.9783 4.6874 15.9527 4.63278 15.9156 4.58633C15.8784 4.53987 15.8307 4.50292 15.7765 4.47853C15.7223 4.45413 15.663 4.44299 15.6036 4.44602C15.5238 4.45047 15.4475 4.4803 15.3858 4.53116C15.3242 4.58203 15.2804 4.65126 15.2608 4.72877L15.1168 5.26352L14.2281 5.77727C14.1247 5.68831 14.0061 5.61893 13.8778 5.57252V4.53677L14.2633 4.15127C14.318 4.09865 14.3555 4.03067 14.3707 3.95633C14.3859 3.88198 14.3783 3.80476 14.3487 3.73487C14.3191 3.66499 14.269 3.60572 14.205 3.5649C14.141 3.52408 14.0662 3.50364 13.9903 3.50627C13.8929 3.50964 13.8007 3.55079 13.7331 3.62102L13.4998 3.85352L13.2681 3.62102C13.2331 3.58495 13.1913 3.55628 13.145 3.53669C13.0988 3.51711 13.0491 3.50702 12.9988 3.50702ZM13.5028 6.25352C13.7143 6.25352 13.8778 6.41552 13.8778 6.62852C13.8786 6.67806 13.8695 6.72725 13.851 6.7732C13.8324 6.81914 13.8049 6.8609 13.7699 6.896C13.7349 6.93111 13.6933 6.95884 13.6474 6.97757C13.6015 6.99629 13.5524 7.00563 13.5028 7.00502C13.4533 7.00563 13.4041 6.99629 13.3583 6.97757C13.3124 6.95884 13.2707 6.93111 13.2358 6.896C13.2008 6.8609 13.1732 6.81914 13.1547 6.7732C13.1362 6.72725 13.127 6.67806 13.1278 6.62852C13.1278 6.41552 13.2913 6.25352 13.5028 6.25352ZM10.0911 10.494C9.69959 10.494 9.35084 10.4865 8.97208 10.6155C8.59334 10.7438 8.22659 10.9988 7.78709 11.448L5.54608 13.5443L1.92583 14.7038C1.64383 14.7945 1.36183 14.9415 1.13833 15.177C0.894243 15.4363 0.758945 15.7794 0.760334 16.1355V17.5433C0.747857 17.5981 0.747857 17.655 0.760334 17.7098V18.051C0.760334 18.8115 1.29733 19.5 2.03983 19.5H3.89833C4.08433 20.355 4.86283 20.997 5.78233 20.997C6.70183 20.997 7.48258 20.3558 7.66933 19.5L16.3191 19.4895C16.5013 20.3505 17.2851 20.997 18.2091 20.997C19.1278 20.997 19.9063 20.3558 20.0923 19.5H21.9516C22.6941 19.5 23.2318 18.8108 23.2318 18.051V17.7345C23.2539 17.6627 23.2539 17.5859 23.2318 17.514V14.937C23.2318 14.5568 23.1043 14.2035 22.8793 13.9335C22.6558 13.6635 22.3153 13.4745 21.9351 13.4895H20.2611L17.8056 11.3468L17.8318 11.373C17.2866 10.794 16.6363 10.494 15.9418 10.494H10.0911ZM10.0911 11.241H12.0028V12.7995C12.0028 13.2158 11.7306 13.497 11.4726 13.497H6.69283L8.31734 11.9783L8.32334 11.9693C8.71859 11.5658 8.97809 11.4015 9.21209 11.322C9.44684 11.2425 9.69659 11.241 10.0911 11.241ZM12.7528 11.241H14.2468V12.7995C14.2468 13.56 14.7846 14.247 15.5271 14.247H20.1283V14.238H21.9666C22.0866 14.2305 22.1998 14.2875 22.3041 14.4128C22.4068 14.5373 22.4826 14.7293 22.4826 14.937V17.25H21.8331C21.7336 17.25 21.6382 17.2895 21.5679 17.3599C21.4976 17.4302 21.4581 17.5256 21.4581 17.625C21.4581 17.7245 21.4976 17.8199 21.5679 17.8902C21.6382 17.9605 21.7336 18 21.8331 18H22.4826V18.051C22.4826 18.4673 22.2103 18.75 21.9523 18.75H20.0998C19.9288 17.8755 19.1421 17.2163 18.2098 17.2163C17.2798 17.2163 16.4938 17.8703 16.3183 18.7395L7.67534 18.75C7.50359 17.8755 6.71533 17.2163 5.78308 17.2163C4.85008 17.2163 4.06333 17.8763 3.89158 18.75H2.04058C1.78258 18.75 1.51033 18.4673 1.51033 18.051V18H2.16658C2.26604 18 2.36142 17.9605 2.43175 17.8902C2.50208 17.8199 2.54158 17.7245 2.54158 17.625C2.54158 17.5256 2.50208 17.4302 2.43175 17.3599C2.36142 17.2895 2.26604 17.25 2.16658 17.25H1.51033V16.1355C1.51033 15.933 1.57183 15.8085 1.68133 15.693C1.79083 15.5775 1.96108 15.4808 2.15458 15.4193L5.80783 14.247H11.4726C12.2151 14.247 12.7528 13.56 12.7528 12.7995V11.241ZM14.9968 11.241H15.9433C16.4368 11.241 16.8471 11.418 17.2858 11.8845L17.2993 11.8995L19.1323 13.497H15.5271C15.2691 13.497 14.9968 13.2158 14.9968 12.7995V11.241ZM10.9228 15.003C10.8736 15.0055 10.8253 15.0177 10.7808 15.0389C10.7362 15.06 10.6963 15.0898 10.6633 15.1264C10.6302 15.163 10.6047 15.2057 10.5882 15.2522C10.5717 15.2986 10.5644 15.3479 10.567 15.3971C10.5695 15.4464 10.5817 15.4947 10.6028 15.5392C10.624 15.5837 10.6537 15.6237 10.6903 15.6567C10.7269 15.6898 10.7697 15.7153 10.8161 15.7318C10.8626 15.7483 10.9118 15.7555 10.9611 15.753H11.9961C12.0955 15.753 12.1909 15.7135 12.2613 15.6432C12.3316 15.5729 12.3711 15.4775 12.3711 15.378C12.3711 15.2786 12.3316 15.1832 12.2613 15.1129C12.1909 15.0425 12.0955 15.003 11.9961 15.003H10.9611C10.9486 15.0024 10.9353 15.0024 10.9228 15.003ZM14.5543 15.003C14.4549 15.0081 14.3615 15.0525 14.2948 15.1264C14.228 15.2003 14.1934 15.2977 14.1985 15.3971C14.2035 15.4966 14.2479 15.59 14.3218 15.6567C14.3957 15.7234 14.4931 15.7581 14.5926 15.753H15.6276C15.727 15.753 15.8224 15.7135 15.8928 15.6432C15.9631 15.5729 16.0026 15.4775 16.0026 15.378C16.0026 15.2786 15.9631 15.1832 15.8928 15.1129C15.8224 15.0425 15.727 15.003 15.6276 15.003H14.5926C14.5801 15.0024 14.5668 15.0024 14.5543 15.003ZM5.78308 17.9663C6.44458 17.9663 6.96209 18.4763 6.96209 19.1078C6.96209 19.7378 6.44458 20.2478 5.78308 20.2478C5.12158 20.2478 4.60558 19.7378 4.60558 19.1078C4.60558 18.4763 5.12158 17.9663 5.78308 17.9663ZM18.2091 17.9663C18.8706 17.9663 19.3866 18.4763 19.3866 19.1078C19.3866 19.7378 18.8706 20.2478 18.2091 20.2478C17.5476 20.2478 17.0301 19.7378 17.0301 19.1078C17.0301 18.4763 17.5476 17.9663 18.2091 17.9663Z" fill="#3B82F6"/>
</svg>
