<svg width="24" height="24" viewBox="0 0 24 24" fill="none" xmlns="http://www.w3.org/2000/svg">
<path d="M21.75 12.375C21.75 12.0766 21.6315 11.7905 21.4205 11.5795C21.2095 11.3685 20.9234 11.25 20.625 11.25H19.875C19.7755 11.25 19.6802 11.2895 19.6098 11.3598C19.5395 11.4302 19.5 11.5255 19.5 11.625V12.75H18V9.375H19.5V10.5H20.25V9.375H20.625C20.9234 9.375 21.2095 9.25647 21.4205 9.0455C21.6315 8.83452 21.75 8.54837 21.75 8.25C21.75 7.95163 21.6315 7.66548 21.4205 7.4545C21.2095 7.24353 20.9234 7.125 20.625 7.125H19.875C19.7755 7.125 19.6802 7.16451 19.6098 7.23483C19.5395 7.30516 19.5 7.40054 19.5 7.5V8.625H18V3.375C18 3.27554 17.9605 3.18016 17.8902 3.10984C17.8198 3.03951 17.7245 3 17.625 3H13.5V1.5C13.5 1.20163 13.3815 0.915483 13.1705 0.704505C12.9595 0.493526 12.6734 0.375 12.375 0.375H7.875C7.57663 0.375 7.29048 0.493526 7.0795 0.704505C6.86853 0.915483 6.75 1.20163 6.75 1.5V3H2.625C2.52554 3 2.43016 3.03951 2.35984 3.10984C2.28951 3.18016 2.25 3.27554 2.25 3.375V23.25C2.25 23.3495 2.28951 23.4448 2.35984 23.5152C2.43016 23.5855 2.52554 23.625 2.625 23.625H17.625C17.7245 23.625 17.8198 23.5855 17.8902 23.5152C17.9605 23.4448 18 23.3495 18 23.25V21H19.5V21.75C19.5 21.8495 19.5395 21.9448 19.6098 22.0152C19.6802 22.0855 19.7755 22.125 19.875 22.125H20.25C20.6478 22.125 21.0294 21.967 21.3107 21.6857C21.592 21.4044 21.75 21.0228 21.75 20.625C21.75 20.2272 21.592 19.8456 21.3107 19.5643C21.0294 19.283 20.6478 19.125 20.25 19.125H19.875C19.7755 19.125 19.6802 19.1645 19.6098 19.2348C19.5395 19.3052 19.5 19.4005 19.5 19.5V20.25H18V17.25H19.5V18.375H20.25V16.9875L21.0637 18.2062C21.0977 18.2578 21.1439 18.3002 21.1982 18.3297C21.2525 18.3591 21.3132 18.3747 21.375 18.375C21.4111 18.3803 21.4477 18.3803 21.4837 18.375C21.5635 18.3509 21.6329 18.301 21.6811 18.2331C21.7293 18.1652 21.7536 18.0832 21.75 18V15.375H21V16.7625L20.1863 15.5438C20.1442 15.4737 20.0804 15.4193 20.0046 15.3889C19.9288 15.3584 19.8451 15.3535 19.7663 15.375C19.6865 15.3991 19.6171 15.449 19.5689 15.5169C19.5207 15.5848 19.4964 15.6668 19.5 15.75V16.5H18V13.5H19.5V14.625H20.25V13.5675C20.4688 13.6449 20.6584 13.788 20.7926 13.9774C20.9269 14.1667 20.9993 14.3929 21 14.625H21.75C21.749 14.1391 21.5594 13.6726 21.2213 13.3237C21.3823 13.2231 21.5153 13.0833 21.6077 12.9174C21.7002 12.7515 21.7491 12.5649 21.75 12.375ZM20.25 7.875H20.625C20.7245 7.875 20.8198 7.91451 20.8902 7.98483C20.9605 8.05516 21 8.15054 21 8.25C21 8.34946 20.9605 8.44484 20.8902 8.51517C20.8198 8.58549 20.7245 8.625 20.625 8.625H20.25V7.875ZM7.5 6.3075V7.5C7.5 7.59946 7.53951 7.69484 7.60983 7.76517C7.68016 7.83549 7.77554 7.875 7.875 7.875H9V10.125H7.875C7.77554 10.125 7.68016 10.1645 7.60983 10.2348C7.53951 10.3052 7.5 10.4005 7.5 10.5V19.5C7.5 19.5995 7.53951 19.6948 7.60983 19.7652C7.68016 19.8355 7.77554 19.875 7.875 19.875H12.375C12.4745 19.875 12.5698 19.8355 12.6402 19.7652C12.7105 19.6948 12.75 19.5995 12.75 19.5V10.5C12.75 10.4005 12.7105 10.3052 12.6402 10.2348C12.5698 10.1645 12.4745 10.125 12.375 10.125H11.25V7.875H12.375C12.4745 7.875 12.5698 7.83549 12.6402 7.76517C12.7105 7.69484 12.75 7.59946 12.75 7.5V6.3075C12.9688 6.23013 13.1584 6.08697 13.2926 5.89765C13.4269 5.70833 13.4993 5.4821 13.5 5.25H15.75V21.375H4.5V5.25H6.75C6.75065 5.4821 6.82308 5.70833 6.95735 5.89765C7.09162 6.08697 7.28117 6.23013 7.5 6.3075ZM9.375 15.75H10.875C10.9745 15.75 11.0698 15.7105 11.1402 15.6402C11.2105 15.5698 11.25 15.4745 11.25 15.375V10.875H12V19.125H8.25V10.875H9V15.375C9 15.4745 9.03951 15.5698 9.10983 15.6402C9.18016 15.7105 9.27554 15.75 9.375 15.75ZM10.5 15H9.75V7.875H10.5V15ZM8.25 7.125V6.375H12V7.125H8.25ZM7.5 1.5C7.5 1.40054 7.53951 1.30516 7.60983 1.23483C7.68016 1.16451 7.77554 1.125 7.875 1.125H12.375C12.4745 1.125 12.5698 1.16451 12.6402 1.23483C12.7105 1.30516 12.75 1.40054 12.75 1.5V5.25C12.75 5.34946 12.7105 5.44484 12.6402 5.51516C12.5698 5.58549 12.4745 5.625 12.375 5.625H7.875C7.77554 5.625 7.68016 5.58549 7.60983 5.51516C7.53951 5.44484 7.5 5.34946 7.5 5.25V1.5ZM17.25 22.875H3V3.75H6.75V4.5H4.125C4.02554 4.5 3.93016 4.53951 3.85984 4.60984C3.78951 4.68016 3.75 4.77554 3.75 4.875V21.75C3.75 21.8495 3.78951 21.9448 3.85984 22.0152C3.93016 22.0855 4.02554 22.125 4.125 22.125H16.125C16.2245 22.125 16.3198 22.0855 16.3902 22.0152C16.4605 21.9448 16.5 21.8495 16.5 21.75V4.875C16.5 4.77554 16.4605 4.68016 16.3902 4.60984C16.3198 4.53951 16.2245 4.5 16.125 4.5H13.5V3.75H17.25V22.875ZM20.25 19.875C20.4489 19.875 20.6397 19.954 20.7803 20.0947C20.921 20.2353 21 20.4261 21 20.625C21 20.8239 20.921 21.0147 20.7803 21.1553C20.6397 21.296 20.4489 21.375 20.25 21.375V19.875ZM20.25 12H20.625C20.7245 12 20.8198 12.0395 20.8902 12.1098C20.9605 12.1802 21 12.2755 21 12.375C21 12.4745 20.9605 12.5698 20.8902 12.6402C20.8198 12.7105 20.7245 12.75 20.625 12.75H20.25V12Z" fill="#3B82F6"/>
<path d="M14.25 19.875H15V20.625H14.25V19.875ZM5.25 19.875H6V20.625H5.25V19.875Z" fill="#3B82F6"/>
</svg>
