<svg width="24" height="24" viewBox="0 0 24 24" fill="none" xmlns="http://www.w3.org/2000/svg">
<path d="M23.0757 6.60919C23.0758 6.48666 23.0517 6.36532 23.0049 6.2521C22.958 6.13888 22.8893 6.03599 22.8027 5.94933C22.7161 5.86266 22.6132 5.79392 22.5 5.74701C22.3868 5.70011 22.2655 5.67596 22.143 5.67596H1.85511C1.73254 5.6759 1.61115 5.7 1.4979 5.74688C1.38465 5.79376 1.28175 5.8625 1.19508 5.94917C1.10841 6.03584 1.03967 6.13874 0.992789 6.25199C0.945912 6.36524 0.921814 6.48662 0.921875 6.60919V20.3746C0.921875 20.7589 1.07456 21.1276 1.34635 21.3993C1.61813 21.6711 1.98675 21.8238 2.37111 21.8238H21.6265C22.0109 21.8238 22.3795 21.6711 22.6513 21.3993C22.923 21.1276 23.0757 20.7589 23.0757 20.3746V6.60919Z" stroke="#3B82F6" stroke-miterlimit="10" stroke-linecap="round" stroke-linejoin="round"/>
<path d="M15.3731 5.67599H8.62402V3.01292C8.62402 2.55092 8.99833 2.17615 9.46079 2.17615H14.5373C14.9988 2.17615 15.374 2.55092 15.374 3.01292V5.67599H15.3731Z" stroke="#3B82F6" stroke-miterlimit="10" stroke-linecap="round" stroke-linejoin="round"/>
<path d="M19.4413 21.8224V8.81628M4.55664 21.8224V8.81628" stroke="#3B82F6" stroke-miterlimit="10" stroke-linecap="round" stroke-linejoin="round"/>
<path d="M13.9715 10.6809C18.7854 9.90094 23.0777 6.61017 23.0777 6.61017M0.923828 6.61017C0.923828 6.61017 5.22075 9.90094 10.0254 10.6809" stroke="#3B82F6" stroke-miterlimit="10" stroke-linecap="round" stroke-linejoin="round"/>
<path d="M14.018 10.8517C14.018 11.3857 13.1133 11.815 12.001 11.815C10.8841 11.815 9.97949 11.3857 9.97949 10.8517C9.97949 10.7802 9.99334 10.7142 10.0256 10.6482C10.2241 10.2134 11.0318 9.88849 12.001 9.88849C12.9656 9.88849 13.7733 10.2134 13.9718 10.6482C14.0041 10.7142 14.018 10.7802 14.018 10.8517Z" stroke="#3B82F6" stroke-miterlimit="10" stroke-linecap="round" stroke-linejoin="round"/>
</svg>
