<svg width="24" height="24" viewBox="0 0 24 24" fill="none" xmlns="http://www.w3.org/2000/svg">
<path d="M14.9176 6.888H9.08301V7.638H14.9176V6.888Z" fill="#3B82F6"/>
<path d="M21.2756 20.7079V18.1421C21.2752 17.78 21.1312 17.4328 20.8752 17.1767C20.6192 16.9206 20.272 16.7765 19.9099 16.776H19.4059V7.59525C19.405 6.8811 19.1208 6.19647 18.6158 5.69156C18.1107 5.18665 17.426 4.90269 16.7119 4.902H16.1644C16.2301 4.74867 16.2641 4.58358 16.2641 4.41675V2.17275C16.2635 1.84539 16.1333 1.5316 15.9018 1.30009C15.6704 1.06857 15.3566 0.938194 15.0293 0.9375H8.97001C8.64265 0.938194 8.3289 1.06857 8.09745 1.30009C7.86601 1.5316 7.73573 1.84539 7.73513 2.17275V4.41675C7.73519 4.58358 7.76913 4.74867 7.83488 4.902H7.28738C6.57323 4.90269 5.88852 5.18665 5.38347 5.69156C4.87842 6.19647 4.59428 6.8811 4.59338 7.59525V16.776H4.08938C3.72725 16.7765 3.3801 16.9206 3.12407 17.1767C2.86804 17.4328 2.72403 17.78 2.72363 18.1421V20.7079C2.72443 21.4707 3.02779 22.202 3.56716 22.7413C4.10653 23.2807 4.83785 23.5841 5.60063 23.5849H18.3986C19.1614 23.5841 19.8927 23.2807 20.4321 22.7413C20.9715 22.202 21.2748 21.4707 21.2756 20.7079ZM13.4996 1.6875V2.625H10.4996V1.6875H13.4996ZM8.48513 4.41675V2.17275C8.48572 2.0443 8.53699 1.92128 8.62778 1.83041C8.71857 1.73955 8.84156 1.68819 8.97001 1.6875H9.74963V3C9.74963 3.09946 9.78914 3.19484 9.85947 3.26516C9.92979 3.33549 10.0252 3.375 10.1246 3.375H13.8746C13.9741 3.375 14.0695 3.33549 14.1398 3.26516C14.2101 3.19484 14.2496 3.09946 14.2496 3V1.6875H15.0293C15.1577 1.68819 15.2807 1.73955 15.3715 1.83041C15.4623 1.92128 15.5135 2.0443 15.5141 2.17275V4.41675C15.5135 4.5452 15.4623 4.66822 15.3715 4.75909C15.2807 4.84995 15.1577 4.90131 15.0293 4.902H8.97001C8.84156 4.90131 8.71857 4.84995 8.62778 4.75909C8.53699 4.66822 8.48572 4.5452 8.48513 4.41675ZM5.34338 7.59525C5.34408 7.07995 5.54914 6.58597 5.91358 6.22167C6.27802 5.85737 6.77208 5.6525 7.28738 5.652H16.7119C17.2272 5.6525 17.7212 5.85737 18.0857 6.22167C18.4501 6.58597 18.6552 7.07995 18.6559 7.59525V16.776H18.3791C18.1087 16.7767 17.8431 16.8475 17.6082 16.9813C17.3732 17.1152 17.177 17.3076 17.0385 17.5399L16.3391 18.7208H15.2918V10.8375C15.2915 10.5179 15.1643 10.2114 14.9383 9.98546C14.7122 9.75948 14.4058 9.63245 14.0861 9.63225H9.91313C9.59351 9.63245 9.28702 9.75948 9.06098 9.98546C8.83493 10.2114 8.70781 10.5179 8.70751 10.8375V18.72H7.66013L6.96038 17.5391C6.82203 17.3068 6.62584 17.1144 6.39095 16.9805C6.15606 16.8466 5.89049 16.7759 5.62013 16.7753H5.34338V7.59525ZM14.5418 15.6375H9.45751V10.8375C9.45771 10.7168 9.50579 10.601 9.5912 10.5157C9.67661 10.4303 9.79239 10.3823 9.91313 10.3822H14.0861C14.2069 10.3823 14.3227 10.4303 14.4081 10.5157C14.4935 10.601 14.5416 10.7168 14.5418 10.8375V15.6375ZM9.45751 16.3875H14.5418V18.7226H9.45751V16.3875ZM3.47363 20.7079V18.1421C3.47383 17.9788 3.53876 17.8223 3.65418 17.7068C3.7696 17.5913 3.9261 17.5263 4.08938 17.526H5.62013C5.76039 17.5264 5.89817 17.5631 6.02002 17.6325C6.14187 17.702 6.24363 17.8019 6.31538 17.9224L7.12463 19.287C7.15782 19.343 7.20501 19.3894 7.26155 19.4216C7.3181 19.4538 7.38205 19.4707 7.44713 19.4708H16.5533C16.6183 19.4707 16.6823 19.4538 16.7388 19.4216C16.7954 19.3894 16.8426 19.343 16.8758 19.287L17.6839 17.9224C17.7557 17.8019 17.8575 17.7021 17.9793 17.6326C18.1011 17.5632 18.2389 17.5264 18.3791 17.526H19.9099C20.0732 17.5263 20.2297 17.5913 20.3451 17.7068C20.4605 17.8223 20.5254 17.9788 20.5256 18.1421V20.7079C20.525 21.2718 20.3008 21.8125 19.902 22.2112C19.5032 22.61 18.9626 22.8343 18.3986 22.8349H5.60063C5.0367 22.8343 4.49604 22.61 4.09727 22.2112C3.69851 21.8125 3.47423 21.2718 3.47363 20.7079Z" fill="#3B82F6"/>
</svg>
