<svg width="23" height="16" viewBox="0 0 23 16" fill="none" xmlns="http://www.w3.org/2000/svg">
<g id="Layer_2">
<path id="Vector" d="M19.7408 7.25771L17.5425 6.75457L17.1358 6.19118C16.3226 5.07722 15.1741 4.23264 13.8242 3.75222C13.4564 3.61774 13.059 3.52364 12.65 3.45061L9.24812 0.323169C8.77942 -0.107723 8.02008 -0.107723 7.55125 0.323169C7.08243 0.754062 7.08255 1.45214 7.55125 1.88314L11.2109 5.24754C11.2462 5.27998 11.292 5.29288 11.3302 5.32035C11.3953 5.36757 11.4593 5.41114 11.535 5.44545C11.6109 5.47976 11.6876 5.49995 11.7683 5.51859C11.8152 5.52962 11.8542 5.5551 11.9034 5.56095C12.276 5.60618 12.6229 5.68704 12.9463 5.80552C13.8451 6.12544 14.6056 6.68462 15.1387 7.41502L15.7985 8.33075C15.9649 8.56131 16.218 8.72612 16.5098 8.79287L19.1512 9.39728C19.8859 9.5707 20.3991 10.1708 20.3991 10.8549L20.3279 12.1347H19.5445C19.0794 11.1637 18.0257 10.4821 16.7995 10.4821C15.5742 10.4821 14.5214 11.1637 14.0566 12.1347H8.74474C8.27951 11.164 7.22594 10.4831 5.99982 10.4831C4.77454 10.4831 3.72193 11.164 3.25706 12.1347H2.89215C2.62024 12.1347 2.39993 11.9364 2.39993 11.6929V9.23347C2.39993 8.46534 2.65072 7.70151 3.11127 7.07558C3.81673 6.09852 5.00373 5.51572 6.28805 5.51572C6.95127 5.51572 7.48802 5.02228 7.48802 4.41257C7.48802 3.80285 6.95127 3.30941 6.28805 3.30941C4.19867 3.30941 2.26277 4.26066 1.11789 5.84645C0.386748 6.84083 0 8.01183 0 9.23347V11.6929C0 13.1528 1.29728 14.341 2.89215 14.341H3.25322C3.71641 15.3156 4.77202 16 6.00102 16C7.23002 16 8.28551 15.3156 8.74882 14.341H14.0529C14.5161 15.3156 15.5717 16 16.8007 16C18.0297 16 19.0852 15.3156 19.5485 14.341H20.3279C21.6908 14.341 22.7993 13.3219 22.7993 12.0689V10.8548C22.7993 9.16341 21.5455 7.68541 19.7408 7.25771Z" fill="#3B82F6"/>
</g>
</svg>
