<svg width="24" height="24" viewBox="0 0 24 24" fill="none" xmlns="http://www.w3.org/2000/svg">
<path d="M9.81261 11.0961C9.90765 11.0412 9.98656 10.9623 10.0414 10.8673C10.0963 10.7722 10.1251 10.6644 10.1251 10.5547V4.92969C10.1246 4.83004 10.1002 4.73198 10.054 4.64367C10.0079 4.55536 9.94126 4.47936 9.85976 4.42202C9.77826 4.36469 9.68424 4.32766 9.58553 4.31405C9.48681 4.30043 9.38628 4.31062 9.2923 4.34375C7.46807 4.98939 5.93396 6.26457 4.96575 7.94005C3.99755 9.61554 3.65875 11.5815 4.01027 13.4844C4.02849 13.5828 4.07008 13.6754 4.13153 13.7544C4.19298 13.8333 4.27249 13.8964 4.3634 13.9383C4.44531 13.9766 4.53468 13.9963 4.62511 13.9961C4.73481 13.9961 4.84259 13.9673 4.93761 13.9125L9.81261 11.0961ZM8.87511 5.87656V10.1937L5.13449 12.3523C5.12511 12.2344 5.12511 12.1156 5.12511 12C5.12622 10.7331 5.4769 9.49106 6.13855 8.41066C6.80019 7.33025 7.74713 6.45337 8.87511 5.87656ZM20.1251 12C20.1257 13.7837 19.5394 15.518 18.4565 16.9354C17.3737 18.3528 15.8545 19.3745 14.1334 19.8428C12.4122 20.3111 10.5848 20.2 8.9331 19.5267C7.28137 18.8534 5.8971 17.6553 4.99386 16.1172C4.95176 16.0461 4.92415 15.9675 4.91263 15.8857C4.90112 15.8039 4.90592 15.7207 4.92677 15.6407C4.94762 15.5608 4.9841 15.4859 5.0341 15.4201C5.0841 15.3544 5.14664 15.2992 5.21808 15.2578L11.3751 11.6742V4.5C11.3751 4.33424 11.441 4.17527 11.5582 4.05806C11.6754 3.94085 11.8344 3.875 12.0001 3.875C13.418 3.87572 14.811 4.24729 16.0409 4.95282C17.2707 5.65834 18.2947 6.67328 19.0111 7.89688C19.0196 7.90938 19.0275 7.92188 19.0353 7.93516C19.0431 7.94844 19.0509 7.96406 19.0579 7.97812C19.759 9.20247 20.1269 10.5892 20.1251 12Z" fill="#1C1C1C"/>
</svg>
