<svg width="94" height="35" viewBox="0 0 94 35" fill="none" xmlns="http://www.w3.org/2000/svg">
<path d="M25.8137 16.7177H28.5172C28.7837 16.7177 28.9999 16.933 28.9999 17.2004V18.1659C28.9999 18.4324 28.7952 18.7163 28.5413 18.8012" stroke="white" stroke-miterlimit="10" stroke-linecap="round" stroke-linejoin="round"/>
<path d="M5.82765 30.7177V33.1314C5.82765 33.6644 5.39606 34.097 4.86213 34.097H2.93109C2.39716 34.097 1.96558 33.6644 1.96558 33.1314V30.7177" stroke="white" stroke-miterlimit="10" stroke-linecap="round" stroke-linejoin="round"/>
<path d="M28.0344 30.2349V33.1314C28.0344 33.6644 27.6028 34.0969 27.0689 34.0969H25.1379C24.6039 34.0969 24.1724 33.6644 24.1724 33.1314V30.2349" stroke="white" stroke-miterlimit="10" stroke-linecap="round" stroke-linejoin="round"/>
<path d="M4.18621 16.7177H1.48276C1.21628 16.7177 1 16.933 1 17.2004V18.1659C1 18.4324 1.20469 18.7163 1.45862 18.8012" stroke="white" stroke-miterlimit="10" stroke-linecap="round" stroke-linejoin="round"/>
<path d="M28.0345 30.2349H1.96552C1.43159 30.2349 1 29.8023 1 29.2694V28.3038H29V29.2694C29 29.8023 28.5684 30.2349 28.0345 30.2349Z" stroke="white" stroke-miterlimit="10" stroke-linecap="round" stroke-linejoin="round"/>
<path d="M1 26.3728V22.9934C1 20.1568 4.45945 19.6141 15 19.6141C25.5406 19.6141 29 20.1577 29 22.9934V26.0715" stroke="white" stroke-miterlimit="10" stroke-linecap="round" stroke-linejoin="round"/>
<path d="M28.9999 23.4762V26.3727H23.2068V24.4417C23.2068 23.9078 23.6384 23.4762 24.1723 23.4762H27.0689" stroke="white" stroke-miterlimit="10" stroke-linecap="round" stroke-linejoin="round"/>
<path d="M2.93103 23.4762H5.82759C6.36152 23.4762 6.7931 23.9078 6.7931 24.4417V26.3727H1V23.4762" stroke="white" stroke-miterlimit="10" stroke-linecap="round" stroke-linejoin="round"/>
<path d="M8.72412 26.3727V25.4072C8.72412 24.3452 9.59309 23.4762 10.6552 23.4762H19.3448C20.4069 23.4762 21.2758 24.3452 21.2758 25.4072V26.3727" stroke="white" stroke-miterlimit="10" stroke-linecap="round" stroke-linejoin="round"/>
<path d="M3.51123 20.095L4.96627 12.8189C5.17578 11.7732 6.14516 10.5866 7.19854 10.4176C8.63523 10.184 10.6647 9.95996 14.9999 9.95996C19.3351 9.95996 21.3646 10.184 22.8023 10.4176C23.8556 10.5875 24.825 11.7732 25.0345 12.8189L26.4915 20.1056" stroke="white" stroke-miterlimit="10" stroke-linecap="round" stroke-linejoin="round"/>
<path d="M22.8981 5.5264H22.9571L23.0099 5.50001L24.2317 4.8891L24.3699 4.82V4.66549V3.44245V3.2878L24.2316 3.21875L23.0097 2.60907L22.957 2.58276H22.8981H21.6763H21.5727L21.4995 2.65599L20.7045 3.45103V2.83276V2.58276H20.4545H19.2327H19.1291L19.0559 2.65599L18.2608 3.45103V2.83276V2.58276H18.0108H14.9563H14.7063V2.83276V5.2764V5.5264H14.9563H22.8981Z" stroke="white" stroke-width="0.5"/>
<path d="M9.05455 0.75C7.22914 0.75 5.75 2.22914 5.75 4.05455C5.75 5.87995 7.22914 7.35909 9.05455 7.35909C10.8799 7.35909 12.3591 5.87995 12.3591 4.05455C12.3591 2.22914 10.8799 0.75 9.05455 0.75ZM7.83273 4.41545C7.73701 4.41545 7.64521 4.37743 7.57753 4.30975C7.50984 4.24206 7.47182 4.15026 7.47182 4.05455C7.47182 3.95883 7.50984 3.86703 7.57753 3.79934C7.64521 3.73166 7.73701 3.69364 7.83273 3.69364C7.92845 3.69364 8.02024 3.73166 8.08793 3.79934C8.15561 3.86703 8.19364 3.95883 8.19364 4.05455C8.19364 4.15026 8.15561 4.24206 8.08793 4.30975C8.02024 4.37743 7.92845 4.41545 7.83273 4.41545Z" stroke="white" stroke-width="0.5"/>
<path d="M14.3309 5.5264H14.5809V5.2764V2.83276V2.58276H14.3309H12.8513H12.4679L12.6226 2.93359C12.7782 3.28681 12.8586 3.66858 12.8586 4.05458C12.8586 4.44059 12.7782 4.82236 12.6226 5.17557L12.4679 5.5264H12.8513H14.3309Z" stroke="white" stroke-width="0.5"/>
<path d="M46.5785 4.42148C46.7835 4.21646 46.7848 3.88236 46.5649 3.69327C45.6529 2.90867 44.5514 2.37037 43.3656 2.1345C42.0078 1.86441 40.6003 2.00303 39.3212 2.53284C38.0421 3.06266 36.9489 3.95987 36.1797 5.11101C35.4105 6.26215 35 7.61553 35 9C35 10.3845 35.4105 11.7378 36.1797 12.889C36.9489 14.0401 38.0421 14.9373 39.3212 15.4672C40.6003 15.997 42.0078 16.1356 43.3656 15.8655C44.5514 15.6296 45.6529 15.0913 46.5649 14.3067C46.7848 14.1176 46.7835 13.7835 46.5785 13.5785C46.3735 13.3735 46.0425 13.3755 45.8202 13.5617C45.0568 14.201 44.1428 14.6403 43.1608 14.8357C42.0066 15.0653 40.8103 14.9474 39.723 14.4971C38.6358 14.0467 37.7066 13.2841 37.0528 12.3056C36.399 11.3272 36.05 10.1768 36.05 9C36.05 7.8232 36.399 6.67283 37.0528 5.69436C37.7065 4.71589 38.6358 3.95326 39.723 3.50292C40.8103 3.05258 42.0066 2.93475 43.1608 3.16433C44.1428 3.35967 45.0568 3.79904 45.8202 4.43832C46.0425 4.62448 46.3735 4.62651 46.5785 4.42148Z" fill="white"/>
<path d="M54.1056 3.78886C54.4741 3.05181 55.5259 3.05181 55.8944 3.78885L61.2764 14.5528C61.6088 15.2177 61.1253 16 60.382 16H49.618C48.8747 16 48.3912 15.2177 48.7236 14.5528L54.1056 3.78886Z" fill="white"/>
<path d="M49 13H61" stroke="#6B7280"/>
<path d="M50 9H59" stroke="#6B7280"/>
<path d="M52 6H58" stroke="#6B7280"/>
<path d="M93.6831 27C93.6831 30.3137 90.9968 33 87.6831 33C84.3694 33 81.6831 30.3137 81.6831 27C81.6831 23.6863 84.3694 21 87.6831 21C90.9968 21 93.6831 23.6863 93.6831 27ZM82.5831 27C82.5831 29.8167 84.8665 32.1 87.6831 32.1C90.4998 32.1 92.7831 29.8167 92.7831 27C92.7831 24.1833 90.4998 21.9 87.6831 21.9C84.8665 21.9 82.5831 24.1833 82.5831 27Z" fill="white"/>
<path d="M57.6831 33L57.6831 21" stroke="white" stroke-linecap="round"/>
<path d="M68.6831 33L68.6831 21" stroke="white" stroke-linecap="round"/>
<path d="M68.6831 33L59.6831 22.5" stroke="white" stroke-linecap="round"/>
<path d="M70.6831 21H80.6831" stroke="white" stroke-linecap="round"/>
<path d="M75.6831 33L75.6831 22.821" stroke="white" stroke-linecap="round"/>
<mask id="path-25-inside-1_1052_2727" fill="white">
<path d="M64 2H70.5C72.433 2 74 3.567 74 5.5C74 7.433 72.433 9 70.5 9H64V2Z"/>
</mask>
<path d="M64 1H70.5C72.9853 1 75 3.01472 75 5.5L73 5.5C73 4.11929 71.8807 3 70.5 3H64V1ZM75 5.5C75 7.98528 72.9853 10 70.5 10H64V8H70.5C71.8807 8 73 6.88071 73 5.5L75 5.5ZM64 9V2V9ZM70.5 1C72.9853 1 75 3.01472 75 5.5V5.5C75 7.98528 72.9853 10 70.5 10V8C71.8807 8 73 6.88071 73 5.5C73 4.11929 71.8807 3 70.5 3V1Z" fill="white" mask="url(#path-25-inside-1_1052_2727)"/>
<path d="M74.6499 15.65L72.0832 9.69997" stroke="white" stroke-linecap="round"/>
<path d="M65 9L65 8.5L64 8.5L64 9L65 9ZM64 16C64 16.2761 64.2239 16.5 64.5 16.5C64.7761 16.5 65 16.2761 65 16L64 16ZM64 9L64 16L65 16L65 9L64 9Z" fill="white"/>
<mask id="path-29-inside-2_1052_2727" fill="white">
<path d="M35 20H41.5C43.433 20 45 21.567 45 23.5C45 25.433 43.433 27 41.5 27H35V20Z"/>
</mask>
<path d="M35 19H41.5C43.9853 19 46 21.0147 46 23.5L44 23.5C44 22.1193 42.8807 21 41.5 21H35V19ZM46 23.5C46 25.9853 43.9853 28 41.5 28H35V26H41.5C42.8807 26 44 24.8807 44 23.5L46 23.5ZM35 27V20V27ZM41.5 19C43.9853 19 46 21.0147 46 23.5V23.5C46 25.9853 43.9853 28 41.5 28V26C42.8807 26 44 24.8807 44 23.5C44 22.1193 42.8807 21 41.5 21V19Z" fill="white" mask="url(#path-29-inside-2_1052_2727)"/>
<path d="M45.6499 33.65L43.0832 27.7" stroke="white" stroke-linecap="round"/>
<path d="M36 27L36 26.5L35 26.5L35 27L36 27ZM35 34C35 34.2761 35.2239 34.5 35.5 34.5C35.7761 34.5 36 34.2761 36 34L35 34ZM35 27L35 34L36 34L36 27L35 27Z" fill="white"/>
<path d="M47.6499 21H55.683" stroke="white" stroke-linecap="round"/>
<path d="M47.6499 27H55.683" stroke="white" stroke-linecap="round"/>
<path d="M47.6499 33H55.683" stroke="white" stroke-linecap="round"/>
<path d="M47.6499 27L47.6499 33" stroke="white" stroke-linecap="round"/>
</svg>
