<svg width="18" height="18" viewBox="0 0 18 18" fill="none" xmlns="http://www.w3.org/2000/svg">
<g id="Air">
<path id="Vector" d="M9.74937 2.63025C9.69316 2.62991 9.63813 2.64642 9.5914 2.67765C9.54466 2.70889 9.50836 2.75341 9.48717 2.80547C9.46598 2.85754 9.46088 2.91476 9.47252 2.96975C9.48417 3.02475 9.51202 3.07499 9.5525 3.114L9.84612 3.4065V4.17937C9.75044 4.21397 9.66182 4.26561 9.58456 4.33181L8.91125 3.94312L8.8055 3.54656C8.79042 3.48709 8.75632 3.43419 8.70839 3.3959C8.66046 3.35762 8.60132 3.33605 8.54 3.3345C8.49594 3.3333 8.45222 3.34247 8.41236 3.36127C8.3725 3.38007 8.33761 3.40797 8.31052 3.44273C8.28342 3.47749 8.26487 3.51813 8.25637 3.56137C8.24786 3.60462 8.24964 3.64925 8.26156 3.69169L8.32681 3.93187L8.08718 3.996C8.04975 4.00389 8.01432 4.01933 7.98306 4.04138C7.9518 4.06343 7.92537 4.09162 7.90538 4.12424C7.88539 4.15685 7.87227 4.19321 7.86681 4.23107C7.86135 4.26893 7.86367 4.30751 7.87363 4.34444C7.88359 4.38138 7.90099 4.41589 7.92474 4.44587C7.9485 4.47585 7.97812 4.50068 8.0118 4.51882C8.04548 4.53696 8.08251 4.54804 8.12062 4.55138C8.15872 4.55472 8.19711 4.55025 8.23343 4.53825L8.63281 4.43137L9.29993 4.81612C9.29037 4.86675 9.28306 4.9185 9.28306 4.97137C9.28306 5.02369 9.29037 5.07487 9.29993 5.12494L8.63225 5.51194L8.23287 5.40506C8.20587 5.39697 8.17781 5.39299 8.14962 5.39325V5.39437C8.08184 5.39624 8.01702 5.42252 7.96709 5.46839C7.91716 5.51425 7.88547 5.57662 7.87787 5.64399C7.87027 5.71136 7.88727 5.77922 7.92573 5.83505C7.96419 5.89089 8.02153 5.93096 8.08718 5.94787L8.32681 6.012L8.26156 6.25106C8.24216 6.32319 8.25222 6.40007 8.28951 6.46479C8.3268 6.52951 8.38827 6.57676 8.4604 6.59615C8.53253 6.61555 8.60941 6.60549 8.67413 6.5682C8.73885 6.53091 8.7861 6.46944 8.8055 6.39731L8.91237 5.99962L9.58456 5.61094C9.66162 5.67619 9.74937 5.72906 9.84612 5.76337V6.53681L9.5525 6.83043C9.52638 6.85666 9.50569 6.88777 9.4916 6.92199C9.47751 6.95621 9.4703 6.99287 9.47038 7.02988C9.47054 7.10461 9.50038 7.17623 9.55334 7.22897C9.6063 7.2817 9.67804 7.31124 9.75278 7.31108C9.82752 7.31093 9.89913 7.28108 9.95187 7.22812L10.1251 7.05375L10.2995 7.22812C10.3256 7.25427 10.3566 7.27502 10.3907 7.28919C10.4249 7.30335 10.4615 7.31066 10.4984 7.31069C10.5354 7.31071 10.572 7.30346 10.6061 7.28934C10.6403 7.27522 10.6713 7.25452 10.6975 7.2284C10.7236 7.20229 10.7444 7.17128 10.7585 7.13715C10.7727 7.10302 10.78 7.06643 10.78 7.02948C10.7801 6.99252 10.7728 6.95592 10.7587 6.92177C10.7446 6.88762 10.7239 6.85658 10.6977 6.83043L10.4086 6.54131V5.76337C10.5054 5.7285 10.5931 5.67562 10.6702 5.60981L11.3379 5.99512L11.4459 6.39731C11.4544 6.43407 11.4703 6.46873 11.4926 6.49923C11.5148 6.52972 11.543 6.55543 11.5753 6.57482C11.6077 6.5942 11.6437 6.60687 11.6811 6.61207C11.7185 6.61726 11.7565 6.61488 11.793 6.60506C11.8294 6.59524 11.8635 6.57818 11.8932 6.55491C11.9229 6.53163 11.9477 6.50262 11.9659 6.46958C11.9842 6.43655 11.9956 6.40018 11.9995 6.36264C12.0034 6.32509 11.9997 6.28715 11.9887 6.25106L11.9246 6.012L12.1631 5.94787C12.2293 5.93071 12.287 5.88999 12.3253 5.83336C12.3637 5.77672 12.3801 5.70804 12.3715 5.64018C12.3629 5.57232 12.3298 5.50992 12.2785 5.46468C12.2272 5.41943 12.1612 5.39444 12.0927 5.39437C12.067 5.39463 12.0415 5.39842 12.0168 5.40562L11.6231 5.51081L10.9548 5.12494C10.9638 5.07487 10.9711 5.02369 10.9711 4.97137C10.9711 4.9185 10.9638 4.86731 10.9542 4.81725L11.6214 4.43306L12.0168 4.53825C12.0531 4.55025 12.0915 4.55472 12.1296 4.55138C12.1677 4.54804 12.2048 4.53696 12.2384 4.51882C12.2721 4.50068 12.3017 4.47585 12.3255 4.44587C12.3493 4.41589 12.3666 4.38138 12.3766 4.34444C12.3866 4.30751 12.3889 4.26893 12.3834 4.23107C12.378 4.19321 12.3648 4.15685 12.3449 4.12424C12.3249 4.09162 12.2984 4.06343 12.2672 4.04138C12.2359 4.01933 12.2005 4.00389 12.1631 3.996L11.9246 3.93075L11.9881 3.69112C12.0001 3.64816 12.0018 3.60296 11.9929 3.55925C11.9839 3.51554 11.9648 3.47457 11.9369 3.43973C11.9091 3.40489 11.8733 3.37718 11.8326 3.35888C11.7919 3.34058 11.7475 3.33223 11.7029 3.3345C11.6431 3.33783 11.5859 3.36021 11.5396 3.39836C11.4934 3.43651 11.4605 3.48843 11.4459 3.54656L11.3379 3.94762L10.6713 4.33294C10.5938 4.26622 10.5048 4.21418 10.4086 4.17937V3.40256L10.6977 3.11344C10.7388 3.07397 10.7668 3.02299 10.7783 2.96723C10.7897 2.91147 10.7839 2.85356 10.7617 2.80114C10.7396 2.74872 10.702 2.70427 10.654 2.67366C10.606 2.64305 10.5499 2.62771 10.493 2.62969C10.4199 2.63221 10.3507 2.66308 10.3001 2.71575L10.1251 2.89012L9.95131 2.71575C9.92509 2.6887 9.8937 2.66719 9.85902 2.65251C9.82433 2.63782 9.78704 2.63025 9.74937 2.63025ZM10.1274 4.69012C10.286 4.69012 10.4086 4.81162 10.4086 4.97137C10.4092 5.00853 10.4024 5.04542 10.3885 5.07988C10.3746 5.11434 10.3539 5.14566 10.3277 5.17199C10.3014 5.19832 10.2702 5.21912 10.2358 5.23316C10.2014 5.2472 10.1645 5.2542 10.1274 5.25375C10.0902 5.2542 10.0533 5.2472 10.0189 5.23316C9.98454 5.21912 9.9533 5.19832 9.92708 5.17199C9.90086 5.14566 9.88018 5.11434 9.86627 5.07988C9.85237 5.04542 9.84552 5.00853 9.84612 4.97137C9.84612 4.81162 9.96875 4.69012 10.1274 4.69012ZM7.56856 7.8705C7.27493 7.8705 7.01337 7.86487 6.72931 7.96162C6.44525 8.05781 6.17018 8.24906 5.84056 8.586L4.15981 10.1582L1.44462 11.0278C1.23312 11.0959 1.02162 11.2061 0.853995 11.3827C0.670926 11.5772 0.569453 11.8345 0.570495 12.1016V13.1574C0.561137 13.1985 0.561137 13.2412 0.570495 13.2823V13.5382C0.570495 14.1086 0.973245 14.625 1.53012 14.625H2.92399C3.06349 15.2662 3.64737 15.7477 4.337 15.7477C5.02662 15.7477 5.61218 15.2668 5.75224 14.625L12.2396 14.6171C12.3762 15.2629 12.9641 15.7477 13.6571 15.7477C14.3461 15.7477 14.93 15.2668 15.0695 14.625H16.4639C17.0208 14.625 17.4241 14.1081 17.4241 13.5382V13.3009C17.4407 13.247 17.4407 13.1894 17.4241 13.1355V11.2027C17.4241 10.9176 17.3285 10.6526 17.1597 10.4501C16.9921 10.2476 16.7367 10.1059 16.4516 10.1171H15.1961L13.3544 8.51006L13.3741 8.52975C12.9652 8.0955 12.4775 7.8705 11.9566 7.8705H7.56856ZM7.56856 8.43075H9.00237V9.59962C9.00237 9.91181 8.79818 10.1227 8.60468 10.1227H5.01987L6.23825 8.98369L6.24275 8.97693C6.53918 8.67431 6.73381 8.55112 6.90931 8.4915C7.08537 8.43187 7.27268 8.43075 7.56856 8.43075ZM9.56487 8.43075H10.6854V9.59962C10.6854 10.17 11.0887 10.6852 11.6456 10.6852H15.0965V10.6785H16.4752C16.5652 10.6729 16.6501 10.7156 16.7283 10.8096C16.8054 10.9029 16.8622 11.0469 16.8622 11.2027V12.9375H16.3751C16.3005 12.9375 16.2289 12.9671 16.1762 13.0199C16.1234 13.0726 16.0938 13.1442 16.0938 13.2187C16.0938 13.2933 16.1234 13.3649 16.1762 13.4176C16.2289 13.4704 16.3005 13.5 16.3751 13.5H16.8622V13.5382C16.8622 13.8504 16.658 14.0625 16.4645 14.0625H15.0751C14.9469 13.4066 14.3568 12.9122 13.6576 12.9122C12.9601 12.9122 12.3706 13.4027 12.239 14.0546L5.75675 14.0625C5.62793 13.4066 5.03675 12.9122 4.33756 12.9122C3.63781 12.9122 3.04774 13.4072 2.91893 14.0625H1.53068C1.33718 14.0625 1.13299 13.8504 1.13299 13.5382V13.5H1.62518C1.69977 13.5 1.77131 13.4704 1.82406 13.4176C1.8768 13.3649 1.90643 13.2933 1.90643 13.2187C1.90643 13.1442 1.8768 13.0726 1.82406 13.0199C1.77131 12.9671 1.69977 12.9375 1.62518 12.9375H1.13299V12.1016C1.13299 11.9497 1.17912 11.8564 1.26124 11.7697C1.34337 11.6831 1.47106 11.6106 1.61618 11.5644L4.35612 10.6852H8.60468C9.16156 10.6852 9.56487 10.17 9.56487 9.59962V8.43075ZM11.2479 8.43075H11.9577C12.3279 8.43075 12.6356 8.5635 12.9646 8.91337L12.9747 8.92462L14.3495 10.1227H11.6456C11.4521 10.1227 11.2479 9.91181 11.2479 9.59962V8.43075ZM8.19237 11.2522C8.15544 11.2541 8.11923 11.2633 8.08583 11.2791C8.05243 11.295 8.02248 11.3173 7.9977 11.3448C7.97291 11.3722 7.95378 11.4043 7.94138 11.4391C7.92899 11.474 7.92358 11.5109 7.92546 11.5478C7.92735 11.5848 7.93649 11.621 7.95236 11.6544C7.96824 11.6878 7.99053 11.7177 8.01798 11.7425C8.04543 11.7673 8.07749 11.7864 8.11234 11.7988C8.14718 11.8112 8.18412 11.8166 8.22106 11.8147H8.99731C9.0719 11.8147 9.14344 11.7851 9.19618 11.7324C9.24893 11.6796 9.27856 11.6081 9.27856 11.5335C9.27856 11.4589 9.24893 11.3874 9.19618 11.3346C9.14344 11.2819 9.0719 11.2522 8.99731 11.2522H8.22106C8.21169 11.2518 8.20174 11.2518 8.19237 11.2522ZM10.916 11.2522C10.8414 11.2561 10.7714 11.2893 10.7213 11.3448C10.6713 11.4002 10.6453 11.4732 10.6491 11.5478C10.6529 11.6224 10.6862 11.6925 10.7416 11.7425C10.797 11.7926 10.8701 11.8186 10.9447 11.8147H11.7209C11.7955 11.8147 11.8671 11.7851 11.9198 11.7324C11.9726 11.6796 12.0022 11.6081 12.0022 11.5335C12.0022 11.4589 11.9726 11.3874 11.9198 11.3346C11.8671 11.2819 11.7955 11.2522 11.7209 11.2522H10.9447C10.9353 11.2518 10.9254 11.2518 10.916 11.2522ZM4.33756 13.4747C4.83368 13.4747 5.22181 13.8572 5.22181 14.3308C5.22181 14.8033 4.83368 15.1858 4.33756 15.1858C3.84143 15.1858 3.45443 14.8033 3.45443 14.3308C3.45443 13.8572 3.84143 13.4747 4.33756 13.4747ZM13.6571 13.4747C14.1532 13.4747 14.5402 13.8572 14.5402 14.3308C14.5402 14.8033 14.1532 15.1858 13.6571 15.1858C13.1609 15.1858 12.7728 14.8033 12.7728 14.3308C12.7728 13.8572 13.1609 13.4747 13.6571 13.4747Z" fill="#111827"/>
</g>
</svg>
