<svg width="16" height="18" viewBox="0 0 16 18" fill="none" xmlns="http://www.w3.org/2000/svg">
<g id="Layer 26">
<path id="Vector" d="M15.3125 9.28125C15.3125 9.05747 15.2236 8.84286 15.0654 8.68463C14.9071 8.52639 14.6925 8.4375 14.4687 8.4375H13.9062C13.8317 8.4375 13.7601 8.46713 13.7074 8.51988C13.6546 8.57262 13.625 8.64416 13.625 8.71875V9.5625H12.5V7.03125H13.625V7.875H14.1875V7.03125H14.4687C14.6925 7.03125 14.9071 6.94236 15.0654 6.78412C15.2236 6.62589 15.3125 6.41128 15.3125 6.1875C15.3125 5.96372 15.2236 5.74911 15.0654 5.59088C14.9071 5.43264 14.6925 5.34375 14.4687 5.34375H13.9062C13.8317 5.34375 13.7601 5.37338 13.7074 5.42613C13.6546 5.47887 13.625 5.55041 13.625 5.625V6.46875H12.5V2.53125C12.5 2.45666 12.4704 2.38512 12.4176 2.33238C12.3649 2.27963 12.2933 2.25 12.2187 2.25H9.125V1.125C9.125 0.901224 9.0361 0.686612 8.87787 0.528379C8.71964 0.370145 8.50503 0.28125 8.28125 0.28125H4.90625C4.68247 0.28125 4.46786 0.370145 4.30963 0.528379C4.15139 0.686612 4.0625 0.901224 4.0625 1.125V2.25H0.96875C0.894158 2.25 0.822621 2.27963 0.769876 2.33238C0.717132 2.38512 0.6875 2.45666 0.6875 2.53125V17.4375C0.6875 17.5121 0.717132 17.5836 0.769876 17.6364C0.822621 17.6891 0.894158 17.7188 0.96875 17.7188H12.2187C12.2933 17.7188 12.3649 17.6891 12.4176 17.6364C12.4704 17.5836 12.5 17.5121 12.5 17.4375V15.75H13.625V16.3125C13.625 16.3871 13.6546 16.4586 13.7074 16.5114C13.7601 16.5641 13.8317 16.5938 13.9062 16.5938H14.1875C14.4859 16.5938 14.772 16.4752 14.983 16.2642C15.194 16.0533 15.3125 15.7671 15.3125 15.4688C15.3125 15.1704 15.194 14.8842 14.983 14.6733C14.772 14.4623 14.4859 14.3438 14.1875 14.3438H13.9062C13.8317 14.3438 13.7601 14.3734 13.7074 14.4261C13.6546 14.4789 13.625 14.5504 13.625 14.625V15.1875H12.5V12.9375H13.625V13.7812H14.1875V12.7406L14.7978 13.6547C14.8233 13.6934 14.8579 13.7252 14.8987 13.7473C14.9394 13.7693 14.9849 13.781 15.0312 13.7812C15.0583 13.7852 15.0858 13.7852 15.1128 13.7812C15.1726 13.7632 15.2247 13.7258 15.2608 13.6748C15.297 13.6239 15.3152 13.5624 15.3125 13.5V11.5312H14.75V12.5719L14.1397 11.6578C14.1081 11.6053 14.0603 11.5645 14.0034 11.5416C13.9466 11.5188 13.8838 11.5152 13.8247 11.5312C13.7649 11.5493 13.7128 11.5867 13.6767 11.6377C13.6405 11.6886 13.6223 11.7501 13.625 11.8125V12.375H12.5V10.125H13.625V10.9688H14.1875V10.1756C14.3516 10.2337 14.4938 10.341 14.5945 10.483C14.6952 10.625 14.7495 10.7947 14.75 10.9688H15.3125C15.3118 10.6043 15.1696 10.2545 14.9159 9.99281C15.0367 9.91732 15.1364 9.81248 15.2058 9.68806C15.2751 9.56364 15.3118 9.42369 15.3125 9.28125ZM14.1875 5.90625H14.4687C14.5433 5.90625 14.6149 5.93588 14.6676 5.98863C14.7204 6.04137 14.75 6.11291 14.75 6.1875C14.75 6.26209 14.7204 6.33363 14.6676 6.38637C14.6149 6.43912 14.5433 6.46875 14.4687 6.46875H14.1875V5.90625ZM4.625 4.73063V5.625C4.625 5.69959 4.65463 5.77113 4.70738 5.82387C4.76012 5.87662 4.83166 5.90625 4.90625 5.90625H5.75V7.59375H4.90625C4.83166 7.59375 4.76012 7.62338 4.70738 7.67613C4.65463 7.72887 4.625 7.80041 4.625 7.875V14.625C4.625 14.6996 4.65463 14.7711 4.70738 14.8239C4.76012 14.8766 4.83166 14.9062 4.90625 14.9062H8.28125C8.35584 14.9062 8.42738 14.8766 8.48012 14.8239C8.53287 14.7711 8.5625 14.6996 8.5625 14.625V7.875C8.5625 7.80041 8.53287 7.72887 8.48012 7.67613C8.42738 7.62338 8.35584 7.59375 8.28125 7.59375H7.4375V5.90625H8.28125C8.35584 5.90625 8.42738 5.87662 8.48012 5.82387C8.53287 5.77113 8.5625 5.69959 8.5625 5.625V4.73063C8.72662 4.6726 8.86878 4.56523 8.96949 4.42324C9.07019 4.28124 9.12451 4.11158 9.125 3.9375H10.8125V16.0312H2.375V3.9375H4.0625C4.06299 4.11158 4.11731 4.28124 4.21801 4.42324C4.31872 4.56523 4.46088 4.6726 4.625 4.73063ZM6.03125 11.8125H7.15625C7.23084 11.8125 7.30238 11.7829 7.35512 11.7301C7.40787 11.6774 7.4375 11.6058 7.4375 11.5312V8.15625H8V14.3438H5.1875V8.15625H5.75V11.5312C5.75 11.6058 5.77963 11.6774 5.83238 11.7301C5.88512 11.7829 5.95666 11.8125 6.03125 11.8125ZM6.875 11.25H6.3125V5.90625H6.875V11.25ZM5.1875 5.34375V4.78125H8V5.34375H5.1875ZM4.625 1.125C4.625 1.05041 4.65463 0.978871 4.70738 0.926126C4.76012 0.873382 4.83166 0.84375 4.90625 0.84375H8.28125C8.35584 0.84375 8.42738 0.873382 8.48012 0.926126C8.53287 0.978871 8.5625 1.05041 8.5625 1.125V3.9375C8.5625 4.01209 8.53287 4.08363 8.48012 4.13637C8.42738 4.18912 8.35584 4.21875 8.28125 4.21875H4.90625C4.83166 4.21875 4.76012 4.18912 4.70738 4.13637C4.65463 4.08363 4.625 4.01209 4.625 3.9375V1.125ZM11.9375 17.1562H1.25V2.8125H4.0625V3.375H2.09375C2.01916 3.375 1.94762 3.40463 1.89488 3.45738C1.84213 3.51012 1.8125 3.58166 1.8125 3.65625V16.3125C1.8125 16.3871 1.84213 16.4586 1.89488 16.5114C1.94762 16.5641 2.01916 16.5938 2.09375 16.5938H11.0937C11.1683 16.5938 11.2399 16.5641 11.2926 16.5114C11.3454 16.4586 11.375 16.3871 11.375 16.3125V3.65625C11.375 3.58166 11.3454 3.51012 11.2926 3.45738C11.2399 3.40463 11.1683 3.375 11.0937 3.375H9.125V2.8125H11.9375V17.1562ZM14.1875 14.9062C14.3367 14.9062 14.4798 14.9655 14.5852 15.071C14.6907 15.1765 14.75 15.3196 14.75 15.4688C14.75 15.6179 14.6907 15.761 14.5852 15.8665C14.4798 15.972 14.3367 16.0312 14.1875 16.0312V14.9062ZM14.1875 9H14.4687C14.5433 9 14.6149 9.02963 14.6676 9.08238C14.7204 9.13512 14.75 9.20666 14.75 9.28125C14.75 9.35584 14.7204 9.42738 14.6676 9.48012C14.6149 9.53287 14.5433 9.5625 14.4687 9.5625H14.1875V9Z" fill="#111827"/>
<path id="Vector_2" d="M9.6875 14.9062H10.25V15.4688H9.6875V14.9062ZM2.9375 14.9062H3.5V15.4688H2.9375V14.9062Z" fill="#111827"/>
</g>
</svg>
