<svg width="10" height="17" viewBox="0 0 10 17" fill="none" xmlns="http://www.w3.org/2000/svg">
<g id="Group 677">
<path id="Vector" d="M5.8125 11.625H3.5625C1.5 11.625 0 10.125 0 8.0625V4.2525C0 3.15 0.90001 2.25 2.00251 2.25H7.38C8.4825 2.25 9.38251 3.15 9.38251 4.2525V8.0625C9.37501 10.125 7.875 11.625 5.8125 11.625ZM2.00251 3.375C1.52251 3.375 1.125 3.765 1.125 4.2525V8.0625C1.125 9.2775 1.875 10.5 3.5625 10.5H5.8125C7.5 10.5 8.25 9.2775 8.25 8.0625V4.2525C8.25 3.7725 7.85999 3.375 7.37249 3.375H2.00251Z" fill="#111827"/>
<path id="Vector_2" d="M2.8125 3.375C2.505 3.375 2.25 3.12 2.25 2.8125V0.5625C2.25 0.255 2.505 0 2.8125 0C3.12 0 3.375 0.255 3.375 0.5625V2.8125C3.375 3.12 3.12 3.375 2.8125 3.375Z" fill="#111827"/>
<path id="Vector_3" d="M6.5625 3.375C6.255 3.375 6 3.12 6 2.8125V0.5625C6 0.255 6.255 0 6.5625 0C6.87 0 7.125 0.255 7.125 0.5625V2.8125C7.125 3.12 6.87 3.375 6.5625 3.375Z" fill="#111827"/>
<path id="Vector_4" d="M4.6875 16.125C4.38 16.125 4.125 15.87 4.125 15.5625V11.0625C4.125 10.755 4.38 10.5 4.6875 10.5C4.995 10.5 5.25 10.755 5.25 11.0625V15.5625C5.25 15.87 4.995 16.125 4.6875 16.125Z" fill="#111827"/>
</g>
</svg>
